<svg xmlns="http://www.w3.org/2000/svg" viewBox="0 0 71.777 48">
  <defs>
    <style>
      .cls-1 {
        fill: #fff;
      }
    </style>
  </defs>
  <g id="Group_36" data-name="Group 36" transform="translate(0)">
    <g id="Group_36-2" data-name="Group 36" transform="translate(0)">
      <path id="Path_199" data-name="Path 199" class="cls-1" d="M8.133,0A6.407,6.407,0,0,1,7.08,6.443a5.194,5.194,0,0,0-.718,2.28,11.372,11.372,0,0,1,4.529-2.679c-.734,2.743-2.089,4.832-4.656,5.9a1.029,1.029,0,0,0-.765,1.021c-.048.877-.128,1.738-.128,2.663a7.776,7.776,0,0,1,3.987-3.476,7.26,7.26,0,0,1-3.142,5.932.994.994,0,0,0-.494,1.308c.223.75.415,1.531.686,2.312a6.8,6.8,0,0,1,3.157-4.481,19.131,19.131,0,0,1-.191,3.429,26.259,26.259,0,0,1-1.4,3.429c-.1.207-.207.526-.128.686a19.307,19.307,0,0,0,1.5,2.153,6.809,6.809,0,0,1,1.579-5.151c.175.367.319.67.431.973a9.52,9.52,0,0,1,.287,6.171.936.936,0,0,0,.223.781,18.518,18.518,0,0,0,1.993,1.643,7.861,7.861,0,0,1-.064-5.9c1.834,2.089,3.014,4.306,2.839,7.033a1.073,1.073,0,0,0,.67,1.244c.67.319,1.292.718,2.009,1.037a9.58,9.58,0,0,1-1.308-5.884c.112-.032.175-.064.191-.048,2.456,1.85,4.338,4.066,4.513,7.336a.765.765,0,0,0,.319.542c.829.447,1.69.845,2.775,1.355a11.05,11.05,0,0,1-2.3-6.506c.845.622,1.595,1.1,2.264,1.674a8.792,8.792,0,0,1,2.982,4.338,1.224,1.224,0,0,1,.1.383c-.255,1.611.813,2.2,2.041,2.679a10.944,10.944,0,0,1,1.1.574A13.169,13.169,0,0,1,29.6,34.35c.622.415,1.164.718,1.643,1.084a8.285,8.285,0,0,1,3.445,5.087c.1.558-.016,1.164.032,1.738a.982.982,0,0,0,.351.734c.351.207.638.734,1.244.351a1.44,1.44,0,0,0,.813-1.547,6.631,6.631,0,0,1,.574-2.918,9.75,9.75,0,0,1,4.529-4.5,14.416,14.416,0,0,1-2.073,6.65c.861-.447,1.722-.861,2.567-1.34a.621.621,0,0,0,.191-.462,7.068,7.068,0,0,1,2.472-5.342,19.156,19.156,0,0,1,2.854-2.2,10.192,10.192,0,0,1-2.169,6.379c1.1-.526,1.977-.941,2.839-1.387a.685.685,0,0,0,.255-.494c.144-3.317,2.153-5.454,4.545-7.447.558,1.451,0,3.955-1.2,6.155.877-.494,1.754-.989,2.6-1.531.144-.1.128-.478.112-.718-.191-2.791.989-5.039,2.839-7.176a8.188,8.188,0,0,1,.016,5.932c.7-.59,1.419-1.164,2.073-1.8.144-.144.112-.574.048-.829a9.682,9.682,0,0,1,.781-6.969A7.064,7.064,0,0,1,62.591,27c.51-.75,1.037-1.483,1.5-2.264.08-.144-.064-.494-.191-.67a9.18,9.18,0,0,1-1.419-6.746,6.989,6.989,0,0,1,3.11,4.433c.239-1,.494-1.993.686-3.014.032-.144-.287-.4-.494-.526a7.6,7.6,0,0,1-3.253-6.028,8.276,8.276,0,0,1,4.066,3.429c-.1-1.052-.175-2.121-.319-3.157-.032-.175-.367-.335-.574-.431-2.631-1.1-3.971-3.189-4.752-5.948A9.86,9.86,0,0,1,65.4,8.8c.08-.048.159-.08.239-.128A12.612,12.612,0,0,0,64.5,6.187a6.558,6.558,0,0,1-.8-6.14h.159c.159.207.3.415.462.622a7.658,7.658,0,0,1,1.85,4.481c.08,1.164.351,2.312.542,3.476.1-.016.191-.016.287-.032a8.872,8.872,0,0,1,1.977-5.262,10.119,10.119,0,0,1,.606,5.677A4.352,4.352,0,0,1,68,11.785a.752.752,0,0,0-.255.51c.064,1.052.175,2.089.271,3.078,1-1.547,2.025-3.126,3.046-4.72l.383.1a26.852,26.852,0,0,1-.016,3.205c-.255,2.1-1.1,3.891-3.269,4.688a.637.637,0,0,0-.367.335c-.255,1.084-.462,2.169-.686,3.205,1.1-.973,2.2-1.961,3.333-2.918a10.043,10.043,0,0,1,1.34-.765v.638c-.064.223-.128.447-.191.686a8.491,8.491,0,0,1-1.738,3.716A4.356,4.356,0,0,1,66,25.419a.524.524,0,0,0-.447.207c-.542.829-1.052,1.69-1.547,2.472,1.818-.542,3.684-1.1,5.549-1.658a7.365,7.365,0,0,1-3.429,4.114,4.678,4.678,0,0,1-4.21.4.586.586,0,0,0-.542.064c-.734.622-1.451,1.292-2.3,2.057a16.386,16.386,0,0,1,6.235.128,8.4,8.4,0,0,1-3.891,2.536,5.307,5.307,0,0,1-4.88-.51c-.112-.08-.335-.175-.415-.128-1,.574-2.009,1.164-3.205,1.866a11.282,11.282,0,0,1,6.682,1.34,13.925,13.925,0,0,1-2.791,1.324c-2.312.686-4.609.829-6.618-.909a.588.588,0,0,0-.478-.112c-.989.462-1.977.973-2.966,1.467a12.821,12.821,0,0,1,6.506,2.169,8.2,8.2,0,0,1-9.632-.606c-.877.462-1.77.941-2.663,1.419a11.482,11.482,0,0,1,6.06,2.52,7.647,7.647,0,0,1-8.436-.59c-.159-.144-.431-.144-.654-.223-.032.08-.048.144-.08.223.51.447,1.021.909,1.531,1.355-.447.59-.861,1.116-1.276,1.658h-.159c-.67-.59-1.34-1.18-2.073-1.818-.734.638-1.4,1.228-2.073,1.818h-.159c-.415-.542-.829-1.068-1.276-1.658l1.579-1.387-.144-.239a2.873,2.873,0,0,0-.734.367c-2.153,1.93-5.98,1.85-8.308.478a11.431,11.431,0,0,1,6.044-2.52c-.893-.478-1.8-.957-2.679-1.419a8.1,8.1,0,0,1-9.6.606,12.385,12.385,0,0,1,6.49-2.089c-.957-.542-1.914-1.052-2.886-1.5-.144-.064-.415.064-.606.144a12.67,12.67,0,0,1-2.408,1.132,8.952,8.952,0,0,1-6.474-1.324c-.159-.1-.3-.239-.606-.462,1.228-.367,2.28-.781,3.349-.989a31.024,31.024,0,0,1,3.221-.319c-.909-.542-1.85-1.132-2.823-1.658a.771.771,0,0,0-.622.128c-2.551,1.547-7,.462-8.627-2.185,1.052-.1,2.057-.223,3.046-.255.989-.016,1.977.08,3.014.128-.75-.67-1.435-1.308-2.169-1.914a.685.685,0,0,0-.606-.08c-3.157,1.387-6.985-1.977-7.67-4.561,1.946.59,3.8,1.164,5.613,1.706-.478-.765-.973-1.595-1.515-2.408a.747.747,0,0,0-.574-.255,3.951,3.951,0,0,1-2.615-.8,7.347,7.347,0,0,1-2.6-3.811C.287,20.3.159,19.742,0,19.184v-.8c1.595,1.26,3.189,2.536,4.672,3.7-.175-.829-.383-1.85-.638-2.854A.794.794,0,0,0,3.6,18.69C.941,17.924-.383,14.065.622,10.557c1.1,1.722,2.137,3.3,3.221,4.991a8.878,8.878,0,0,1,.016-1.467,3.7,3.7,0,0,0-.845-3.173C1.339,8.611,1.945,6,2.727,3.333A9.306,9.306,0,0,1,4.848,8.611a7.128,7.128,0,0,0,.8-2.743A7.057,7.057,0,0,1,7.4.75c.191-.255.383-.51.574-.75Z" transform="translate(0)"/>
    </g>
    <g id="Group_37" data-name="Group 37" transform="translate(14.894 5.055)">
      <path id="Path_200" data-name="Path 200" class="cls-1" d="M93.4,37.2c1.212-.3,2.3-.574,3.365-.861q4.162-1.1,8.324-2.185c1.579-.415,3.173-.781,4.752-1.2S113,32.1,114.577,31.73a2.116,2.116,0,0,1,1.084.112c1.148.415,2.28.877,3.413,1.308,2.408.925,4.832,1.85,7.24,2.791,2.376.909,4.736,1.834,7.112,2.743.59.223,1.164.447,1.85.7-1.643.622-3.205,1.212-4.736,1.786.223.51.447.989.654,1.467a4.67,4.67,0,0,1,.1,2.839c-.159.765-.415,1.515-.606,2.28a.705.705,0,0,0,.048.478,1.281,1.281,0,0,1-.415,1.882c-.1.064-.223.207-.207.3a6.5,6.5,0,0,0,1.435,3.955,2.985,2.985,0,0,0,.383.335,5.878,5.878,0,0,1-2.233.845c-.526.016-.718-.447-.893-.8a5.142,5.142,0,0,1,.032-4.768.549.549,0,0,0,.032-.447,1.288,1.288,0,0,1,.462-1.69.443.443,0,0,0,.191-.191A7.787,7.787,0,0,0,130,43.4a6.238,6.238,0,0,0-.686-1.435.5.5,0,0,0-.447-.144c-1.4.51-2.791,1.052-4.178,1.579-1.052.4-2.121.781-3.173,1.18-2.009.75-4.019,1.483-6.028,2.28a1.24,1.24,0,0,1-1.068-.08c-1.866-.845-3.732-1.706-5.6-2.551q-3.66-1.674-7.32-3.317c-1.531-.686-3.062-1.371-4.577-2.057C95.792,38.3,94.66,37.774,93.4,37.2Z" transform="translate(-93.4 -31.698)"/>
      <path id="Path_201" data-name="Path 201" class="cls-1" d="M147.468,104.686a13.9,13.9,0,0,1,1.068-5.486q2.1.981,4.162,1.914c1.132.526,2.28,1.021,3.429,1.547,1.292.59,2.551,1.2,3.859,1.738a1.321,1.321,0,0,0,.925.032c2.121-.765,4.226-1.563,6.331-2.36,1.371-.526,2.743-1.052,4.178-1.611a12.6,12.6,0,0,1,.175,6.49,11.984,11.984,0,0,0-12.582,4A11.8,11.8,0,0,0,147.468,104.686Z" transform="translate(-138.841 -88.436)"/>
    </g>
  </g>
</svg>
